<svg id="Layer_1" data-name="Layer 1" xmlns="http://www.w3.org/2000/svg" xmlns:xlink="http://www.w3.org/1999/xlink" viewBox="0 0 250 16.72"><defs><style>.cls-1{fill:url(#linear-gradient);}.cls-2{fill:none;stroke:#fbb03b;stroke-miterlimit:10;stroke-width:2px;opacity:0.7;}.cls-3{fill:#fbb03b;}.cls-4{fill:#6af8ff;}</style><linearGradient id="linear-gradient" y1="8.72" x2="250" y2="8.72" gradientUnits="userSpaceOnUse"><stop offset="0" stop-color="#fbb03b" stop-opacity="0.03"/><stop offset="0.03" stop-color="#fbb03b" stop-opacity="0.09"/><stop offset="0.26" stop-color="#fbb03b" stop-opacity="0.57"/><stop offset="0.43" stop-color="#fbb03b" stop-opacity="0.88"/><stop offset="0.5" stop-color="#fbb03b"/><stop offset="0.73" stop-color="#fbb03b" stop-opacity="0.51"/><stop offset="0.91" stop-color="#fbb03b" stop-opacity="0.14"/><stop offset="0.99" stop-color="#fbb03b" stop-opacity="0"/></linearGradient></defs><rect class="cls-1" y="7.72" width="250" height="2" rx="1"/><polyline class="cls-2" points="56 0.71 68.06 15.71 184.64 15.71 200 0.71"/><path class="cls-3" d="M128.72.23h0a15.43,15.43,0,0,0,6.1,6.1h0a.43.43,0,0,1,0,.76h0a15.43,15.43,0,0,0-6.1,6.1h0a.43.43,0,0,1-.76,0h0a15.43,15.43,0,0,0-6.1-6.1h0a.43.43,0,0,1,0-.76h0A15.43,15.43,0,0,0,128,.23h0A.43.43,0,0,1,128.72.23Z" transform="translate(0 1.72)"/><path d="M128.61,1.73h0A10.94,10.94,0,0,0,133,6.08h0a.3.3,0,0,1,0,.54h0A10.92,10.92,0,0,0,128.61,11h0a.3.3,0,0,1-.54,0h0a10.94,10.94,0,0,0-4.35-4.34h0a.31.31,0,0,1,0-.54h0a11,11,0,0,0,4.35-4.35h0A.31.31,0,0,1,128.61,1.73Z" transform="translate(0 1.72)"/><path class="cls-4" d="M128.54,3h0a8.1,8.1,0,0,0,3.18,3.23h0a.23.23,0,0,1,0,.4h0a8.1,8.1,0,0,0-3.18,3.23h0a.23.23,0,0,1-.4,0h0A8.17,8.17,0,0,0,125,6.65h0a.23.23,0,0,1,0-.4h0A8.17,8.17,0,0,0,128.14,3h0A.23.23,0,0,1,128.54,3Z" transform="translate(0 1.72)"/></svg>